<mxfile host="app.diagrams.net" modified="2023-12-17T17:05:49.953Z" agent="Mozilla/5.0 (Macintosh; Intel Mac OS X 10_15_7) AppleWebKit/605.1.15 (KHTML, like Gecko) Version/17.2 Safari/605.1.15" etag="1_CC_-8R9GGv-abkotG-" version="22.1.11" type="device">
  <diagram name="Page-1" id="PbU2KtJumOnQwO1pIxSv">
    <mxGraphModel dx="896" dy="627" grid="1" gridSize="10" guides="1" tooltips="1" connect="1" arrows="1" fold="1" page="1" pageScale="1" pageWidth="850" pageHeight="1100" math="0" shadow="0">
      <root>
        <mxCell id="0" />
        <mxCell id="1" parent="0" />
        <mxCell id="nv2TlsYGhyYfvkfZ5cBy-50" value="" style="fontColor=#0066CC;verticalAlign=top;verticalLabelPosition=bottom;labelPosition=center;align=center;html=1;outlineConnect=0;fillColor=#CCCCCC;strokeColor=#6881B3;gradientColor=none;gradientDirection=north;strokeWidth=2;shape=mxgraph.networks.comm_link;" vertex="1" parent="1">
          <mxGeometry x="100" y="420" width="30" height="60" as="geometry" />
        </mxCell>
        <mxCell id="nv2TlsYGhyYfvkfZ5cBy-49" value="" style="fontColor=#0066CC;verticalAlign=top;verticalLabelPosition=bottom;labelPosition=center;align=center;html=1;outlineConnect=0;fillColor=#CCCCCC;strokeColor=#6881B3;gradientColor=none;gradientDirection=north;strokeWidth=2;shape=mxgraph.networks.comm_link;" vertex="1" parent="1">
          <mxGeometry x="528" y="420" width="30" height="60" as="geometry" />
        </mxCell>
        <mxCell id="nv2TlsYGhyYfvkfZ5cBy-1" value="" style="fontColor=#0066CC;verticalAlign=top;verticalLabelPosition=bottom;labelPosition=center;align=center;html=1;outlineConnect=0;fillColor=#CCCCCC;strokeColor=#6881B3;gradientColor=none;gradientDirection=north;strokeWidth=2;shape=mxgraph.networks.pc;" vertex="1" parent="1">
          <mxGeometry x="325" y="280" width="100" height="70" as="geometry" />
        </mxCell>
        <mxCell id="nv2TlsYGhyYfvkfZ5cBy-2" value="" style="fontColor=#0066CC;verticalAlign=top;verticalLabelPosition=bottom;labelPosition=center;align=center;html=1;outlineConnect=0;fillColor=#CCCCCC;strokeColor=#6881B3;gradientColor=none;gradientDirection=north;strokeWidth=2;shape=mxgraph.networks.desktop_pc;" vertex="1" parent="1">
          <mxGeometry x="495" y="280" width="40" height="80" as="geometry" />
        </mxCell>
        <mxCell id="nv2TlsYGhyYfvkfZ5cBy-4" value="" style="fontColor=#0066CC;verticalAlign=top;verticalLabelPosition=bottom;labelPosition=center;align=center;html=1;outlineConnect=0;fillColor=#CCCCCC;strokeColor=#6881B3;gradientColor=none;gradientDirection=north;strokeWidth=2;shape=mxgraph.networks.router;" vertex="1" parent="1">
          <mxGeometry x="190" y="300" width="100" height="30" as="geometry" />
        </mxCell>
        <mxCell id="nv2TlsYGhyYfvkfZ5cBy-5" value="" style="fontColor=#0066CC;verticalAlign=top;verticalLabelPosition=bottom;labelPosition=center;align=center;html=1;outlineConnect=0;fillColor=#CCCCCC;strokeColor=#6881B3;gradientColor=none;gradientDirection=north;strokeWidth=2;shape=mxgraph.networks.laptop;" vertex="1" parent="1">
          <mxGeometry x="70" y="478" width="100" height="55" as="geometry" />
        </mxCell>
        <mxCell id="nv2TlsYGhyYfvkfZ5cBy-6" value="" style="fontColor=#0066CC;verticalAlign=top;verticalLabelPosition=bottom;labelPosition=center;align=center;html=1;outlineConnect=0;fillColor=#CCCCCC;strokeColor=#6881B3;gradientColor=none;gradientDirection=north;strokeWidth=2;shape=mxgraph.networks.pc;" vertex="1" parent="1">
          <mxGeometry x="200" y="463" width="100" height="70" as="geometry" />
        </mxCell>
        <mxCell id="nv2TlsYGhyYfvkfZ5cBy-16" value="" style="html=1;fillColor=#CCCCCC;strokeColor=#6881B3;gradientColor=none;gradientDirection=north;strokeWidth=2;shape=mxgraph.networks.bus;gradientColor=none;gradientDirection=north;fontColor=#ffffff;perimeter=backbonePerimeter;backboneSize=20;" vertex="1" parent="1">
          <mxGeometry x="60" y="400" width="650" height="20" as="geometry" />
        </mxCell>
        <mxCell id="nv2TlsYGhyYfvkfZ5cBy-17" value="" style="strokeColor=#6881B3;edgeStyle=none;rounded=0;endArrow=none;html=1;strokeWidth=2;" edge="1" target="nv2TlsYGhyYfvkfZ5cBy-16" parent="1" source="nv2TlsYGhyYfvkfZ5cBy-4">
          <mxGeometry relative="1" as="geometry">
            <mxPoint x="100" y="340" as="sourcePoint" />
          </mxGeometry>
        </mxCell>
        <mxCell id="nv2TlsYGhyYfvkfZ5cBy-18" value="" style="strokeColor=#6881B3;edgeStyle=none;rounded=0;endArrow=none;html=1;strokeWidth=2;" edge="1" target="nv2TlsYGhyYfvkfZ5cBy-16" parent="1" source="nv2TlsYGhyYfvkfZ5cBy-1">
          <mxGeometry relative="1" as="geometry">
            <mxPoint x="160" y="340" as="sourcePoint" />
          </mxGeometry>
        </mxCell>
        <mxCell id="nv2TlsYGhyYfvkfZ5cBy-19" value="" style="strokeColor=#6881B3;edgeStyle=none;rounded=0;endArrow=none;html=1;strokeWidth=2;" edge="1" target="nv2TlsYGhyYfvkfZ5cBy-16" parent="1" source="nv2TlsYGhyYfvkfZ5cBy-2">
          <mxGeometry relative="1" as="geometry">
            <mxPoint x="220" y="340" as="sourcePoint" />
          </mxGeometry>
        </mxCell>
        <mxCell id="nv2TlsYGhyYfvkfZ5cBy-20" value="" style="strokeColor=#6881B3;edgeStyle=none;rounded=0;endArrow=none;html=1;strokeWidth=2;" edge="1" target="nv2TlsYGhyYfvkfZ5cBy-16" parent="1" source="nv2TlsYGhyYfvkfZ5cBy-26">
          <mxGeometry relative="1" as="geometry">
            <mxPoint x="280" y="340" as="sourcePoint" />
          </mxGeometry>
        </mxCell>
        <mxCell id="nv2TlsYGhyYfvkfZ5cBy-21" value="" style="strokeColor=#6881B3;edgeStyle=none;rounded=0;endArrow=none;html=1;strokeWidth=2;" edge="1" target="nv2TlsYGhyYfvkfZ5cBy-16" parent="1" source="nv2TlsYGhyYfvkfZ5cBy-48">
          <mxGeometry relative="1" as="geometry">
            <mxPoint x="100" y="480" as="sourcePoint" />
          </mxGeometry>
        </mxCell>
        <mxCell id="nv2TlsYGhyYfvkfZ5cBy-22" value="" style="strokeColor=#6881B3;edgeStyle=none;rounded=0;endArrow=none;html=1;strokeWidth=2;" edge="1" target="nv2TlsYGhyYfvkfZ5cBy-16" parent="1" source="nv2TlsYGhyYfvkfZ5cBy-29">
          <mxGeometry relative="1" as="geometry">
            <mxPoint x="160" y="480" as="sourcePoint" />
          </mxGeometry>
        </mxCell>
        <mxCell id="nv2TlsYGhyYfvkfZ5cBy-23" value="" style="strokeColor=#6881B3;edgeStyle=none;rounded=0;endArrow=none;html=1;strokeWidth=2;" edge="1" target="nv2TlsYGhyYfvkfZ5cBy-16" parent="1" source="nv2TlsYGhyYfvkfZ5cBy-6">
          <mxGeometry relative="1" as="geometry">
            <mxPoint x="220" y="480" as="sourcePoint" />
          </mxGeometry>
        </mxCell>
        <mxCell id="nv2TlsYGhyYfvkfZ5cBy-26" value="" style="fontColor=#0066CC;verticalAlign=top;verticalLabelPosition=bottom;labelPosition=center;align=center;html=1;outlineConnect=0;fillColor=#CCCCCC;strokeColor=#6881B3;gradientColor=none;gradientDirection=north;strokeWidth=2;shape=mxgraph.networks.tablet;" vertex="1" parent="1">
          <mxGeometry x="605" y="280" width="100" height="70" as="geometry" />
        </mxCell>
        <mxCell id="nv2TlsYGhyYfvkfZ5cBy-27" value="" style="fontColor=#0066CC;verticalAlign=top;verticalLabelPosition=bottom;labelPosition=center;align=center;html=1;outlineConnect=0;fillColor=#CCCCCC;strokeColor=#6881B3;gradientColor=none;gradientDirection=north;strokeWidth=2;shape=mxgraph.networks.laptop;" vertex="1" parent="1">
          <mxGeometry x="495" y="478" width="100" height="55" as="geometry" />
        </mxCell>
        <mxCell id="nv2TlsYGhyYfvkfZ5cBy-29" value="" style="fontColor=#0066CC;verticalAlign=top;verticalLabelPosition=bottom;labelPosition=center;align=center;html=1;outlineConnect=0;fillColor=#CCCCCC;strokeColor=#6881B3;gradientColor=none;gradientDirection=north;strokeWidth=2;shape=mxgraph.networks.printer;" vertex="1" parent="1">
          <mxGeometry x="352.5" y="459" width="85" height="78" as="geometry" />
        </mxCell>
        <mxCell id="nv2TlsYGhyYfvkfZ5cBy-30" value="&lt;font style=&quot;font-size: 18px;&quot;&gt;Internet&lt;/font&gt;" style="html=1;outlineConnect=0;fillColor=#CCCCCC;strokeColor=#6881B3;gradientColor=none;gradientDirection=north;strokeWidth=2;shape=mxgraph.networks.cloud;fontColor=#ffffff;" vertex="1" parent="1">
          <mxGeometry x="30" y="285" width="110" height="60" as="geometry" />
        </mxCell>
        <mxCell id="nv2TlsYGhyYfvkfZ5cBy-36" value="" style="strokeColor=#6881B3;edgeStyle=none;rounded=0;endArrow=none;html=1;strokeWidth=2;" edge="1" target="nv2TlsYGhyYfvkfZ5cBy-30" parent="1" source="nv2TlsYGhyYfvkfZ5cBy-4">
          <mxGeometry relative="1" as="geometry">
            <mxPoint x="205" y="190" as="sourcePoint" />
            <mxPoint x="205" y="129" as="targetPoint" />
          </mxGeometry>
        </mxCell>
        <mxCell id="nv2TlsYGhyYfvkfZ5cBy-40" value="&lt;h1&gt;&lt;font style=&quot;font-size: 18px;&quot;&gt;192.168.1.1&lt;/font&gt;&lt;/h1&gt;" style="text;html=1;strokeColor=none;fillColor=none;spacing=5;spacingTop=-20;whiteSpace=wrap;overflow=hidden;rounded=0;" vertex="1" parent="1">
          <mxGeometry x="190" y="220" width="110" height="40" as="geometry" />
        </mxCell>
        <mxCell id="nv2TlsYGhyYfvkfZ5cBy-41" value="&lt;h1&gt;&lt;font style=&quot;font-size: 18px;&quot;&gt;192.168.1.100&lt;/font&gt;&lt;/h1&gt;" style="text;html=1;strokeColor=none;fillColor=none;spacing=5;spacingTop=-20;whiteSpace=wrap;overflow=hidden;rounded=0;" vertex="1" parent="1">
          <mxGeometry x="310" y="220" width="130" height="40" as="geometry" />
        </mxCell>
        <mxCell id="nv2TlsYGhyYfvkfZ5cBy-42" value="&lt;h1&gt;&lt;font style=&quot;font-size: 18px;&quot;&gt;192.168.1.101&lt;/font&gt;&lt;/h1&gt;" style="text;html=1;strokeColor=none;fillColor=none;spacing=5;spacingTop=-20;whiteSpace=wrap;overflow=hidden;rounded=0;" vertex="1" parent="1">
          <mxGeometry x="450" y="220" width="130" height="40" as="geometry" />
        </mxCell>
        <mxCell id="nv2TlsYGhyYfvkfZ5cBy-43" value="&lt;h1&gt;&lt;font style=&quot;font-size: 18px;&quot;&gt;192.168.1.102&lt;/font&gt;&lt;/h1&gt;" style="text;html=1;strokeColor=none;fillColor=none;spacing=5;spacingTop=-20;whiteSpace=wrap;overflow=hidden;rounded=0;" vertex="1" parent="1">
          <mxGeometry x="590" y="220" width="130" height="40" as="geometry" />
        </mxCell>
        <mxCell id="nv2TlsYGhyYfvkfZ5cBy-44" value="&lt;h1&gt;&lt;font style=&quot;font-size: 18px;&quot;&gt;192.168.1.103&lt;/font&gt;&lt;/h1&gt;" style="text;html=1;strokeColor=none;fillColor=none;spacing=5;spacingTop=-20;whiteSpace=wrap;overflow=hidden;rounded=0;" vertex="1" parent="1">
          <mxGeometry x="50" y="550" width="130" height="40" as="geometry" />
        </mxCell>
        <mxCell id="nv2TlsYGhyYfvkfZ5cBy-45" value="&lt;h1&gt;&lt;font style=&quot;font-size: 18px;&quot;&gt;192.168.1.104&lt;/font&gt;&lt;/h1&gt;" style="text;html=1;strokeColor=none;fillColor=none;spacing=5;spacingTop=-20;whiteSpace=wrap;overflow=hidden;rounded=0;" vertex="1" parent="1">
          <mxGeometry x="190" y="550" width="130" height="40" as="geometry" />
        </mxCell>
        <mxCell id="nv2TlsYGhyYfvkfZ5cBy-46" value="&lt;h1&gt;&lt;font style=&quot;font-size: 18px;&quot;&gt;192.168.1.105&lt;/font&gt;&lt;/h1&gt;" style="text;html=1;strokeColor=none;fillColor=none;spacing=5;spacingTop=-20;whiteSpace=wrap;overflow=hidden;rounded=0;" vertex="1" parent="1">
          <mxGeometry x="330" y="550" width="130" height="40" as="geometry" />
        </mxCell>
        <mxCell id="nv2TlsYGhyYfvkfZ5cBy-47" value="&lt;h1&gt;&lt;font style=&quot;font-size: 18px;&quot;&gt;192.168.1.106&lt;/font&gt;&lt;/h1&gt;" style="text;html=1;strokeColor=none;fillColor=none;spacing=5;spacingTop=-20;whiteSpace=wrap;overflow=hidden;rounded=0;" vertex="1" parent="1">
          <mxGeometry x="470" y="550" width="130" height="40" as="geometry" />
        </mxCell>
        <mxCell id="nv2TlsYGhyYfvkfZ5cBy-48" value="" style="fontColor=#0066CC;verticalAlign=top;verticalLabelPosition=bottom;labelPosition=center;align=center;html=1;outlineConnect=0;fillColor=#CCCCCC;strokeColor=#6881B3;gradientColor=none;gradientDirection=north;strokeWidth=2;shape=mxgraph.networks.storage;" vertex="1" parent="1">
          <mxGeometry x="630" y="458" width="80" height="82" as="geometry" />
        </mxCell>
        <mxCell id="nv2TlsYGhyYfvkfZ5cBy-51" value="&lt;h1&gt;&lt;font style=&quot;font-size: 18px;&quot;&gt;192.168.1.107&lt;/font&gt;&lt;/h1&gt;" style="text;html=1;strokeColor=none;fillColor=none;spacing=5;spacingTop=-20;whiteSpace=wrap;overflow=hidden;rounded=0;" vertex="1" parent="1">
          <mxGeometry x="605" y="550" width="130" height="40" as="geometry" />
        </mxCell>
        <mxCell id="nv2TlsYGhyYfvkfZ5cBy-52" value="&lt;h1&gt;&lt;font style=&quot;font-size: 18px;&quot;&gt;11:22:33:44:55:66&lt;/font&gt;&lt;/h1&gt;" style="text;html=1;strokeColor=none;fillColor=none;spacing=5;spacingTop=-20;whiteSpace=wrap;overflow=hidden;rounded=0;" vertex="1" parent="1">
          <mxGeometry x="160" y="194" width="160" height="40" as="geometry" />
        </mxCell>
        <mxCell id="nv2TlsYGhyYfvkfZ5cBy-53" value="&lt;h1&gt;&lt;font style=&quot;font-size: 18px;&quot;&gt;77:88:99:aa:bb:cc&lt;/font&gt;&lt;/h1&gt;" style="text;html=1;strokeColor=none;fillColor=none;spacing=5;spacingTop=-20;whiteSpace=wrap;overflow=hidden;rounded=0;" vertex="1" parent="1">
          <mxGeometry x="594" y="194" width="160" height="40" as="geometry" />
        </mxCell>
        <mxCell id="nv2TlsYGhyYfvkfZ5cBy-55" value="&lt;h1&gt;&lt;font style=&quot;font-size: 18px;&quot;&gt;99:88:77:66:55:44&lt;/font&gt;&lt;/h1&gt;" style="text;html=1;strokeColor=none;fillColor=none;spacing=5;spacingTop=-20;whiteSpace=wrap;overflow=hidden;rounded=0;" vertex="1" parent="1">
          <mxGeometry x="430" y="194" width="160" height="40" as="geometry" />
        </mxCell>
      </root>
    </mxGraphModel>
  </diagram>
</mxfile>
